<svg xmlns="http://www.w3.org/2000/svg" viewBox="0 0 400 300">
  <defs>
    <linearGradient id="sky4" x1="0" y1="0" x2="0" y2="1">
      <stop offset="0%" stop-color="#ffd3a0"/>
      <stop offset="100%" stop-color="#ffeede"/>
    </linearGradient>
  </defs>
  <rect width="400" height="300" fill="url(#sky4)"/>
  <circle cx="330" cy="60" r="30" fill="#fff3d6"/>
  <rect x="40" y="120" width="60" height="140" fill="#cdb89a"/>
  <rect x="120" y="90" width="70" height="170" fill="#bfa888"/>
  <path d="M120 90 L155 50 L190 90 Z" fill="#7d8ba0"/>
  <rect x="210" y="140" width="50" height="120" fill="#cdb89a"/>
  <rect x="280" y="110" width="60" height="150" fill="#bfa888"/>
  <g fill="#8a6d4a">
    <rect x="55" y="150" width="10" height="14"/>
    <rect x="75" y="150" width="10" height="14"/>
    <rect x="140" y="120" width="10" height="14"/>
    <rect x="165" y="120" width="10" height="14"/>
    <rect x="225" y="170" width="10" height="14"/>
    <rect x="300" y="140" width="10" height="14"/>
    <rect x="320" y="140" width="10" height="14"/>
  </g>
  <rect y="260" width="400" height="40" fill="#d8c2a0"/>
</svg>
